<svg xmlns="http://www.w3.org/2000/svg" id="Icons" height="512" viewBox="0 0 60 60" width="512" style="&#10;    fill: #3d547e;&#10;"><path d="m48.816 34h2.184v-13a3 3 0 0 0 -3-3h-36a3 3 0 0 0 -3 3v13h2.184a2.966 2.966 0 0 1 -.184-1v-6a3 3 0 0 1 3-3h12a3 3 0 0 1 3 3v6a2.966 2.966 0 0 1 -.184 1h2.368a2.966 2.966 0 0 1 -.184-1v-6a3 3 0 0 1 3-3h12a3 3 0 0 1 3 3v6a2.966 2.966 0 0 1 -.184 1z"/><path d="m39.786 16 .455-2h-20.482l.455 2z"/><rect height="8" rx="1" width="14" x="33" y="26"/><path d="m41.989 6.323a.4.4 0 0 0 -.11-.383.358.358 0 0 0 -.348-.094l-5.512 1.4a1 1 0 0 1 -.958-.267l-4.8-4.865a.321.321 0 0 0 -.526 0l-4.8 4.865a1 1 0 0 1 -.958.267l-5.513-1.4a.353.353 0 0 0 -.347.094.4.4 0 0 0 -.11.383l1.293 5.677h21.4z"/><rect height="8" rx="1" width="14" x="13" y="26"/><path d="m54 58a1 1 0 0 0 1-1v-1h-4v1a1 1 0 0 0 1 1z"/><path d="m5 57a1 1 0 0 0 1 1h2a1 1 0 0 0 1-1v-1h-4z"/><path d="m58 53v-13a4 4 0 0 0 -4-4h-48a4 4 0 0 0 -4 4v13a1 1 0 0 0 1 1h54a1 1 0 0 0 1-1z"/></svg>