<svg xmlns="http://www.w3.org/2000/svg" id="Layer_1" enable-background="new 0 0 300 300" viewBox="0 0 300 300"><g style="&#10;    fill: #3d547e;&#10;"><path d="m290.3 134.5-134.4-108.4c-4.6-3.7-11.3-3.7-15.9.1l-130.5 108.7c-5.3 4.4-6 12.3-1.6 17.6 2.5 3 6 4.5 9.6 4.5 2.8 0 5.7-.9 8-2.9l122.7-102 126.4 101.9c5.4 4.3 13.3 3.5 17.6-1.9 4.4-5.4 3.5-13.3-1.9-17.6z"/><path d="m238.2 151.7h-2.1c-4.1 0-7.8 2.8-8.8 6.8l-2.2 8.7-3.6-5-10.2-27.2c-1.6-4.3-5.7-7.1-10.2-7.1h-52.4-52.2c-4.5 0-8.6 2.8-10.2 7.1l-10.2 27.2-4 5.6-2.4-9.6c-1-4-4.6-6.8-8.8-6.8h-2.1c-5 0-9 4-9 9 0 4.5 3.3 8.3 7.7 8.9l6.4.9 2.3 5.8-7.4 10.3c-3.2 3.3-5 7.7-5 12.3v42.4c0 4.9 3.5 9 8.2 9.9-.1.3-.1.6-.1.9v20.1c0 2.6 2.1 4.8 4.8 4.8h20.1c2.6 0 4.8-2.1 4.8-4.8v-20.1c0-.2 0-.5-.1-.7h56 2.6 55.4c0 .2-.1.5-.1.7v20.1c0 2.6 2.1 4.8 4.8 4.8h20.1c2.6 0 4.8-2.1 4.8-4.8v-20.1c0-.3 0-.5-.1-.8 5-.6 8.8-4.9 8.8-10v-42.4c0-4.6-1.8-9-5-12.3l-7.7-10.7 1.9-4.9 6.4-.9c4.4-.6 7.7-4.4 7.7-8.9.1-5.1-3.9-9.2-8.9-9.2zm-137.7 69.7h-26.5c-3.3 0-6-2.7-6-6v-9.6c0-3.3 2.7-6 6-6h11.7c1.2 0 2.3.3 3.3 1l14.7 9.6c1.7 1.1 2.7 3 2.7 5 .1 3.3-2.6 6-5.9 6zm-6.4-48.8c-2.6 0-4.5-2.6-3.6-5.1l8.8-25c.5-1.5 2-2.5 3.6-2.5h93.1c1.7 0 3.2 1.1 3.7 2.7l7.3 25c.7 2.4-1.1 4.9-3.7 4.9zm96.2 42.8c0-2 1-3.9 2.7-5l14.7-9.6c1-.6 2.1-1 3.3-1h11.7c3.3 0 6 2.7 6 6v9.6c0 3.3-2.7 6-6 6h-26.4c-3.3 0-6-2.7-6-6z" style="&#10;    fill: #3d547e;&#10;"/></g></svg>